HIERARCHY
ROOT Hips
{
	OFFSET	0.00	0.00	0.00
	CHANNELS 6 Xposition Yposition Zposition Zrotation Xrotation Yrotation
	JOINT Chest
	{
		OFFSET	0.000000	6.275751	0.000000
		CHANNELS 3 Zrotation Xrotation Yrotation
		JOINT Neck
		{
			OFFSET	0.000000	14.296947	0.000000
			CHANNELS 3 Zrotation Xrotation Yrotation
			JOINT Head
			{
				OFFSET	0.000000	2.637461	0.000000
				CHANNELS 3 Zrotation Xrotation Yrotation
				End Site
				{
					OFFSET	0.000000	4.499004	0.000000
				}
			}
		}
		JOINT LeftCollar
		{
			OFFSET	1.120000	11.362855	1.870000
			CHANNELS 3 Zrotation Xrotation Yrotation
			JOINT LeftUpArm
			{
				OFFSET	4.565688	2.019026	-1.821179
				CHANNELS 3 Zrotation Xrotation Yrotation
				JOINT LeftLowArm
				{
					OFFSET	0.219729	-10.348825	-0.061708
					CHANNELS 3 Zrotation Xrotation Yrotation
					JOINT LeftHand
					{
						OFFSET	0.087892	-10.352228	2.178217
						CHANNELS 3 Zrotation Xrotation Yrotation
						End Site
						{
							OFFSET	0.131837	-6.692379	1.711456
						}
					}
				}
			}
		}
		JOINT RightCollar
		{
			OFFSET	-1.120000	11.362855	1.870000
			CHANNELS 3 Zrotation Xrotation Yrotation
			JOINT RightUpArm
			{
				OFFSET	-4.708080	2.034554	-1.821179
				CHANNELS 3 Zrotation Xrotation Yrotation
				JOINT RightLowArm
				{
					OFFSET	-0.263676	-10.428555	-0.061708
					CHANNELS 3 Zrotation Xrotation Yrotation
					JOINT RightHand
					{
						OFFSET	0.000000	-10.255345	2.178217
						CHANNELS 3 Zrotation Xrotation Yrotation
						End Site
						{
							OFFSET	-0.140882	-6.671274	1.711456
						}
					}
				}
			}
		}
	}
	JOINT LeftUpLeg
	{
		OFFSET	3.910000	0.000000	0.000000
		CHANNELS 3 Zrotation Xrotation Yrotation
		JOINT LeftLowLeg
		{
			OFFSET	-0.441177	-17.569450	1.695613
			CHANNELS 3 Zrotation Xrotation Yrotation
			JOINT LeftFoot
			{
				OFFSET	-0.043946	-17.197315	-1.478076
				CHANNELS 3 Zrotation Xrotation Yrotation
				End Site
				{
					OFFSET	0.000000	-3.933155	5.233925
				}
			}
		}
	}
	JOINT RightUpLeg
	{
		OFFSET	-3.910000	0.000000	0.000000
		CHANNELS 3 Zrotation Xrotation Yrotation
		JOINT RightLowLeg
		{
			OFFSET	0.437741	-17.622387	1.695613
			CHANNELS 3 Zrotation Xrotation Yrotation
			JOINT RightFoot
			{
				OFFSET	0.000000	-17.140001	-1.478076
				CHANNELS 3 Zrotation Xrotation Yrotation
				End Site
				{
					OFFSET	0.000000	-4.038528	5.233925
				}
			}
		}
	}
}
MOTION
Frames: 20
Frame Time: 0.04166667
-9.325004	3.068854	2.550660	-56.241024	-1.379066	97.475464	14.500443	28.383469	-10.352878	-2.351273	-11.610418	-11.433761	3.226393	-37.371410	2.711497	-18.868938	25.668234	9.997966	148.843124	-58.343906	87.051613	8.208510	-6.263347	-8.478111	12.981850	2.773715	2.736511	19.081526	37.465069	-21.851910	-169.376511	-43.415203	-115.826157	-14.532915	0.255539	14.293352	-38.686626	5.100416	-7.704838	28.185528	-70.798340	40.301472	-4.676785	52.883465	-17.321745	-14.684765	18.747406	6.017273	3.458031	-35.631271	-34.027977	-0.188829	-0.117924	-20.485455	4.201415	-16.633989	5.765017	
-8.162324	2.753393	2.095295	-65.899132	0.208843	93.811913	13.051912	28.394606	-8.546801	-2.813885	-16.777618	-8.452575	2.665419	-39.012680	2.285744	-20.868233	25.556147	15.285338	166.596130	-51.044418	108.875259	8.716329	-1.078229	-7.413330	16.583508	2.969038	3.477596	24.104673	42.727516	-30.464170	177.338837	-26.362921	-115.639420	-12.899796	8.941973	8.806064	-44.076622	5.868694	-8.580815	17.522160	-68.989723	23.547054	-4.063110	40.609425	-16.542625	-20.365982	0.039181	1.981444	7.144072	-39.671368	-37.664459	0.636643	-9.134064	-9.341268	6.038951	-13.854087	5.809901	
-6.675940	2.364293	1.597384	-75.372101	3.131470	87.984886	8.311013	28.540100	-4.201530	-1.682943	-21.469213	-3.960860	-0.221631	-40.688515	-0.193742	-21.245485	24.157368	20.837252	178.270111	-47.333221	137.507568	18.662395	-0.937488	-15.305918	-10.707928	2.674550	-2.263123	25.204943	41.327480	-33.251232	169.079147	-15.914013	-116.781746	-7.626620	15.742034	1.381400	-45.206123	6.039927	-8.755177	11.490669	-61.228077	19.346697	-3.181463	21.662851	-12.659557	-11.784456	-19.621681	-2.999432	7.854848	-45.550594	-40.998577	2.181116	-9.141904	8.670046	10.408372	-11.727018	6.016372	
-4.492041	1.562033	1.255064	-84.666794	6.076785	84.128693	2.438658	25.729263	1.418058	1.604421	-24.327728	0.657064	-5.095842	-40.407265	-4.446638	-20.619410	25.386612	26.310276	-163.385590	-48.420261	-136.885086	18.043415	-43.730698	-74.920235	-24.338184	3.545459	-5.024842	20.343126	34.285046	-29.333187	166.986832	-17.654623	-122.322571	-5.417566	17.717161	-1.046883	-42.591305	5.648700	-8.346566	4.522412	-50.025719	10.909703	-1.973940	-9.183870	-7.190517	-4.946686	-22.839025	-1.581017	2.329653	-48.874134	-34.699745	2.781743	-9.020551	15.644043	20.029932	-10.420158	6.539616	
-2.388608	0.392291	1.013741	-91.426369	6.931327	84.975914	2.465942	24.060333	1.126156	2.668341	-26.415684	2.713381	-6.252235	-40.187206	-5.445876	-20.081972	23.898952	29.121670	-139.167557	-51.759785	-111.868294	43.797554	-72.028137	-60.620895	-47.088810	6.361749	-8.954944	20.765593	32.370564	-31.512089	164.270279	-14.929407	-129.870407	-6.852123	16.484056	0.461797	-35.568256	4.694791	-7.167113	2.494985	-51.604702	8.372121	-2.187525	-9.168340	-9.368595	-1.109005	-23.812775	-0.460825	-1.768844	-49.692463	-37.818295	2.332785	-9.129422	10.243720	14.407424	-8.158261	5.501927	
-0.534506	-1.203826	0.993811	-95.226738	6.086584	88.378044	4.445805	23.343231	-1.951573	3.313253	-27.367226	3.066210	-6.217636	-39.956219	-5.401221	-20.601667	23.973282	30.341173	-130.392578	-48.873756	-103.807861	72.901268	-77.399529	-33.334869	-55.511219	7.766279	-10.088793	21.723013	31.954029	-32.633915	163.507278	-13.511720	-123.308067	-5.876918	17.385141	-0.407011	-39.113968	5.158281	-7.776830	-0.782868	-53.180000	9.017576	-3.395648	0.415109	-14.342585	-0.821063	-16.870592	-0.291651	-6.798328	-46.425117	-41.940338	1.822643	-9.202078	4.333048	8.732035	-6.817635	5.092737	
0.953068	-3.349096	1.074068	-97.743500	4.945930	92.103004	6.446556	20.044746	-5.412338	3.121367	-26.208321	1.870372	-4.403465	-39.013935	-3.778901	-17.022482	22.825674	26.032087	-177.548431	-35.389091	123.998314	7.184102	12.627533	-1.605536	13.186164	2.783537	2.778864	18.956589	31.517588	-30.421339	165.537811	-19.475382	-117.256210	-6.244014	17.015297	-0.243918	-44.628147	5.951863	-8.666387	-0.756313	-59.445820	11.962722	-4.714572	25.517160	-18.244524	5.340814	-9.237010	0.174863	-10.858244	-40.471394	-41.295910	1.738320	-9.211411	3.368790	6.448547	-4.281067	4.779747	
2.309022	-6.011338	1.131745	-97.764412	4.873588	94.685432	6.258578	18.639431	-7.729350	3.114373	-24.684658	-0.033537	-2.752750	-39.567398	-2.376369	-14.448445	21.192263	22.621004	-178.887817	-43.170723	116.205284	7.354462	12.496772	-2.073120	23.586893	3.480477	4.878361	18.096632	30.596834	-28.680603	165.847473	-27.967985	-116.257347	-7.953940	14.962135	1.674685	-43.097748	5.722993	-8.427073	-4.738449	-52.743546	4.075388	-3.454979	30.371471	-12.282240	6.086802	-4.308467	-0.319901	-12.160115	-33.129204	-42.097515	1.746273	-9.213856	3.476166	1.871888	-0.347964	4.806801	
3.703427	-9.067313	1.125124	-94.924698	5.156734	94.703949	6.034790	17.477671	-6.060423	1.386920	-19.340422	-3.593549	-5.164221	-39.056011	-4.435830	-18.142233	14.870013	19.674204	-177.323975	-57.165668	114.464836	8.156937	7.390968	-4.916698	29.807247	4.075572	6.064283	19.488457	29.585886	-25.625553	166.565140	-39.186806	-117.731590	-9.441516	13.374781	3.721098	-62.012867	8.950351	-10.918187	-4.944098	-34.842976	-3.239396	-2.107791	14.607087	-2.082589	6.119748	-0.002172	-0.794946	-12.220395	-23.713810	-36.401325	1.461953	-9.229441	0.278019	4.368103	1.920454	4.376463	
4.821786	-12.336260	1.093728	-87.248970	4.734843	89.965523	9.777776	16.358778	-2.509873	-4.922939	-9.032493	-2.311853	-2.467867	-29.671637	-1.850917	-22.162373	4.453766	14.150064	-42.025757	-88.529907	-32.317154	18.458036	-45.014893	-84.157372	-27.188179	3.809215	-5.572629	18.845474	31.658054	-25.656654	177.875259	-51.832668	-120.423965	-12.732080	-9.975734	18.630711	-46.791904	6.286161	-8.994315	-0.393050	-11.491875	-4.500815	-1.205238	-9.209682	1.414190	8.260674	3.916941	-1.591026	-10.237403	-11.124319	-24.128063	1.294330	-9.236448	-1.598065	8.951420	2.099844	3.686781	
5.452419	-15.392785	1.125161	-78.253448	2.589430	85.916756	15.729856	13.921671	-1.763224	-10.870703	3.741730	1.005560	-1.887854	-18.928919	-1.136131	-20.334661	-0.389023	9.326656	-11.449465	-41.699020	15.462838	161.725403	-56.262062	41.783257	-86.566978	13.942904	-12.248235	19.590214	36.058773	-32.902336	172.661545	-55.118832	-115.749580	-10.502254	-8.588759	14.832533	-44.899750	5.993160	-8.708208	2.863193	-0.089110	-1.484762	-1.542294	-9.221689	-2.502341	6.850742	2.505543	-1.176599	-8.711079	1.722560	-13.712250	1.218514	-9.234487	-2.480383	12.724417	1.560701	3.238925	
5.430305	-18.117350	1.375851	-70.730530	1.494430	87.045547	14.959419	10.413870	-2.877567	-10.106243	14.781021	-1.139235	-1.441016	-13.652936	-0.750675	-17.745377	4.664902	9.052820	69.375847	-66.179504	-16.744242	3.520559	-6.728439	-4.563939	17.039337	2.997051	3.570515	15.770214	34.456844	-31.066628	177.090805	-66.272255	-104.945183	-8.216336	-6.022871	10.560515	-38.710049	5.103530	-7.708806	4.052408	10.876998	2.541157	-2.355671	-9.129272	-12.018900	7.817478	1.852797	-1.227731	-7.466426	12.882890	-12.972556	1.045263	-9.212403	-4.515638	11.468565	0.047112	3.724231	
5.319788	-20.677988	1.708010	-64.057907	1.774553	90.016014	11.876279	7.183984	-5.408231	-8.836113	22.786098	-2.117913	-1.044658	-9.990553	-0.482804	-13.398867	6.918241	8.222753	62.962070	-59.569202	-23.809299	2.282946	-12.911917	-4.223089	15.364964	2.897746	3.228195	5.956049	29.955276	-22.174692	-136.600235	-79.075089	-61.210262	-5.799435	-9.871968	9.196168	-35.511967	4.687735	-7.157212	5.366513	11.625607	-1.207492	-2.971676	8.558626	-13.351429	9.530541	-5.913265	-0.134084	-6.719211	23.388584	-11.284147	0.612206	-9.140356	-9.626416	9.021118	-0.242716	4.047571	
5.430909	-23.171797	1.905593	-58.290653	0.381970	90.133263	13.986082	4.285933	-6.787721	-12.287192	27.618256	-0.446592	-1.364094	-6.692146	-0.556123	-11.369753	3.059106	5.509985	55.583675	-47.934383	-34.701984	0.718561	-19.035820	-2.422313	13.581739	2.802994	2.860722	-1.203157	29.651077	-19.267445	-88.639397	-78.473427	-9.133949	-4.449537	-16.223053	9.180585	-32.309555	4.303020	-6.583078	6.649960	15.322556	-3.779506	-2.885030	20.666735	-8.475478	7.936203	-13.098748	0.883903	-4.935112	29.268915	-9.161761	0.251233	-2.936902	-15.156421	4.870366	-2.511764	4.682318	
5.771642	-25.383146	2.076779	-53.294827	-1.183876	88.634811	15.924410	2.124282	-6.162822	-14.356380	30.471355	1.001998	-1.531816	-4.261323	-0.561649	-9.291714	0.157514	4.559090	51.305679	-40.013180	-44.985722	0.096908	-22.466879	-0.829463	10.521261	2.667238	2.224072	-5.790085	29.121584	-18.366796	-63.668312	-75.162781	17.519896	-3.405789	-20.969831	8.262865	-31.002274	4.155278	-6.342917	6.995062	22.493986	1.833733	-2.151395	24.424969	0.029431	5.495421	-17.628977	1.009145	-4.959559	28.984505	-8.567967	0.293311	13.246019	-16.102402	5.017380	-8.561302	5.206645	
6.276555	-27.124012	2.205112	-49.228245	-2.079799	88.143791	16.496880	0.870549	-6.353679	-14.459297	31.383890	2.318912	-1.906214	-3.364156	-0.669809	-7.172422	-0.132115	4.754680	49.969841	-36.094105	-50.327785	-0.476880	-25.782637	1.281120	10.287351	2.658258	2.175152	-5.875414	30.398373	-21.504299	-58.699917	-75.738510	26.936153	-2.454012	-23.726496	6.467398	-31.189632	4.176102	-6.377528	7.324443	27.439646	6.712241	-1.984840	29.018850	2.462326	5.502399	-18.704168	1.114948	-4.871748	31.094639	-10.911849	0.249244	21.942963	-16.257475	3.859372	-10.963716	5.321316	
6.648802	-28.410067	2.354416	-47.131721	-2.963294	87.213531	17.082386	-1.738420	-5.683311	-14.565763	32.334270	1.875304	-1.520553	-3.309842	-0.532806	-4.841187	-1.175096	4.013371	47.750927	-31.006378	-54.380692	-0.195650	-28.974779	2.174524	10.516890	2.667097	2.223161	-9.485188	29.250189	-20.835497	-45.169960	-73.118195	42.817410	-1.350735	-25.116331	3.544554	-28.967499	3.936441	-5.962708	7.177760	33.135860	13.432517	-1.824646	27.910864	3.789509	3.194957	-19.640202	0.645734	-4.715941	32.575756	-13.183880	0.170239	25.906248	-16.650640	1.284449	-11.061297	5.108533	
6.837078	-28.667879	2.491028	-48.523529	-3.264992	88.065369	17.282007	-4.050910	-5.870163	-13.876595	31.395433	1.064630	-0.952550	-4.497569	-0.353034	-3.230546	-0.520884	3.546175	45.708214	-29.437719	-53.085438	0.343194	-29.785690	0.991413	12.722713	2.761475	2.682756	-8.115006	31.540152	-24.183105	-46.657085	-75.413399	43.270271	-1.196528	-27.005156	2.306903	-29.047722	3.944870	-5.977826	7.271101	33.794815	16.512238	-1.731424	26.206638	4.337145	-0.538679	-20.490976	-0.261238	-2.937004	34.023136	-17.336124	0.286665	22.067945	-15.765767	1.542999	-11.235766	5.135204	
6.767511	-27.977705	2.589076	-50.956718	-2.685640	89.694130	15.523004	-3.152199	-5.858707	-11.200231	29.729429	-1.271090	-0.960256	-5.466946	-0.371664	-2.136018	1.044543	4.353498	46.115326	-32.985748	-51.114235	0.561335	-29.406775	0.031102	13.367257	2.792361	2.816351	-6.667000	30.278645	-24.439199	-48.325829	-74.221695	41.240494	-1.298617	-27.879732	2.153381	-30.201105	4.067495	-6.194091	7.121333	29.721699	14.508413	-1.628092	26.950729	5.554563	-3.114981	-20.411690	-0.916394	-0.960857	32.740486	-17.599890	0.209014	18.566118	-16.900070	0.207402	-11.688735	5.019195	
6.639045	-26.864794	2.639832	-52.890057	-1.798748	91.136406	14.033102	-1.408483	-6.137062	-9.442923	29.253752	-2.203024	-1.473588	-4.475343	-0.545658	-2.055105	1.526556	5.214319	47.261826	-37.617718	-51.961479	-0.297063	-27.099964	1.183672	12.598900	2.755700	2.657053	-5.989944	29.328350	-23.961813	-50.668724	-74.699570	38.762711	-0.538958	-25.785486	1.615017	-30.093056	4.055851	-6.173958	6.624026	24.862469	10.248304	-1.669930	28.425871	5.317434	-3.199883	-19.698469	-0.900982	-1.155755	28.981623	-15.699098	0.113573	18.659788	-17.855585	0.401595	-9.572927	5.022966	
